<mxfile host="app.diagrams.net" modified="2024-01-06T22:39:53.039Z" agent="Mozilla/5.0 (Windows NT 10.0; Win64; x64) AppleWebKit/537.36 (KHTML, like Gecko) Chrome/120.0.0.0 Safari/537.36" etag="KatsEoIiXeuNGSo9bNtD" version="22.1.17" type="github">
  <diagram name="Page-1" id="xQ2bvAj2dj6fd-mV-saz">
    <mxGraphModel dx="828" dy="731" grid="1" gridSize="10" guides="1" tooltips="1" connect="1" arrows="1" fold="1" page="1" pageScale="1" pageWidth="850" pageHeight="1100" math="0" shadow="0">
      <root>
        <mxCell id="0" />
        <mxCell id="1" parent="0" />
        <mxCell id="lBwCpDVDsvU10m8GlB8_-1" value="" style="rounded=0;orthogonalLoop=1;jettySize=auto;html=1;startArrow=classic;startFill=1;shape=link;edgeStyle=orthogonalEdgeStyle;fillColor=#f5f5f5;strokeColor=#666666;" edge="1" parent="1" source="SJ-bCOnbTnxGpGsnDmNn-1" target="SJ-bCOnbTnxGpGsnDmNn-2">
          <mxGeometry relative="1" as="geometry" />
        </mxCell>
        <mxCell id="lBwCpDVDsvU10m8GlB8_-2" value="1. Sent Events" style="edgeLabel;html=1;align=center;verticalAlign=middle;resizable=0;points=[];" vertex="1" connectable="0" parent="lBwCpDVDsvU10m8GlB8_-1">
          <mxGeometry x="-0.1852" y="1" relative="1" as="geometry">
            <mxPoint as="offset" />
          </mxGeometry>
        </mxCell>
        <mxCell id="SJ-bCOnbTnxGpGsnDmNn-1" value="Windows 10 Client&lt;br&gt;Wazuh Agent" style="verticalAlign=top;verticalLabelPosition=bottom;labelPosition=center;align=center;html=1;outlineConnect=0;fillColor=#f8cecc;strokeColor=#b85450;gradientDirection=north;strokeWidth=2;shape=mxgraph.networks.pc;" vertex="1" parent="1">
          <mxGeometry x="360" y="760" width="100" height="70" as="geometry" />
        </mxCell>
        <mxCell id="lBwCpDVDsvU10m8GlB8_-3" style="edgeStyle=orthogonalEdgeStyle;rounded=0;orthogonalLoop=1;jettySize=auto;html=1;entryX=0.5;entryY=1;entryDx=0;entryDy=0;startArrow=classic;startFill=1;shape=link;" edge="1" parent="1" source="SJ-bCOnbTnxGpGsnDmNn-2" target="SJ-bCOnbTnxGpGsnDmNn-8">
          <mxGeometry relative="1" as="geometry" />
        </mxCell>
        <mxCell id="SJ-bCOnbTnxGpGsnDmNn-2" value="Router" style="image;html=1;image=img/lib/clip_art/networking/Router_Icon_128x128.png" vertex="1" parent="1">
          <mxGeometry x="370" y="590" width="80" height="80" as="geometry" />
        </mxCell>
        <mxCell id="lBwCpDVDsvU10m8GlB8_-8" style="edgeStyle=orthogonalEdgeStyle;rounded=0;orthogonalLoop=1;jettySize=auto;html=1;entryX=0.5;entryY=0;entryDx=0;entryDy=0;shape=link;fillColor=#d5e8d4;strokeColor=#82b366;" edge="1" parent="1" source="SJ-bCOnbTnxGpGsnDmNn-3" target="SJ-bCOnbTnxGpGsnDmNn-8">
          <mxGeometry relative="1" as="geometry" />
        </mxCell>
        <mxCell id="lBwCpDVDsvU10m8GlB8_-9" value="4. Enrich IOCS" style="edgeLabel;html=1;align=center;verticalAlign=middle;resizable=0;points=[];" vertex="1" connectable="0" parent="lBwCpDVDsvU10m8GlB8_-8">
          <mxGeometry x="0.2493" y="1" relative="1" as="geometry">
            <mxPoint as="offset" />
          </mxGeometry>
        </mxCell>
        <mxCell id="lBwCpDVDsvU10m8GlB8_-12" style="rounded=0;orthogonalLoop=1;jettySize=auto;html=1;entryX=0.5;entryY=0;entryDx=0;entryDy=0;shape=link;fillColor=#dae8fc;strokeColor=#6c8ebf;" edge="1" parent="1" source="SJ-bCOnbTnxGpGsnDmNn-3" target="SJ-bCOnbTnxGpGsnDmNn-4">
          <mxGeometry relative="1" as="geometry" />
        </mxCell>
        <mxCell id="lBwCpDVDsvU10m8GlB8_-14" value="5. Send Alerts" style="edgeLabel;html=1;align=center;verticalAlign=middle;resizable=0;points=[];" vertex="1" connectable="0" parent="lBwCpDVDsvU10m8GlB8_-12">
          <mxGeometry x="0.4578" y="-1" relative="1" as="geometry">
            <mxPoint as="offset" />
          </mxGeometry>
        </mxCell>
        <mxCell id="lBwCpDVDsvU10m8GlB8_-15" style="rounded=0;orthogonalLoop=1;jettySize=auto;html=1;entryX=1;entryY=0;entryDx=0;entryDy=0;shape=link;width=6;fillColor=#ffe6cc;strokeColor=#d79b00;" edge="1" parent="1" source="SJ-bCOnbTnxGpGsnDmNn-3" target="SJ-bCOnbTnxGpGsnDmNn-8">
          <mxGeometry relative="1" as="geometry">
            <Array as="points">
              <mxPoint x="490" y="430" />
            </Array>
          </mxGeometry>
        </mxCell>
        <mxCell id="lBwCpDVDsvU10m8GlB8_-16" value="6. Send Email" style="edgeLabel;html=1;align=center;verticalAlign=middle;resizable=0;points=[];" vertex="1" connectable="0" parent="lBwCpDVDsvU10m8GlB8_-15">
          <mxGeometry x="0.1942" y="-2" relative="1" as="geometry">
            <mxPoint as="offset" />
          </mxGeometry>
        </mxCell>
        <mxCell id="lBwCpDVDsvU10m8GlB8_-23" style="edgeStyle=orthogonalEdgeStyle;rounded=0;orthogonalLoop=1;jettySize=auto;html=1;exitX=0.25;exitY=0;exitDx=0;exitDy=0;entryX=0;entryY=0.25;entryDx=0;entryDy=0;shape=link;fillColor=#f8cecc;strokeColor=#b85450;" edge="1" parent="1" source="SJ-bCOnbTnxGpGsnDmNn-3" target="SJ-bCOnbTnxGpGsnDmNn-5">
          <mxGeometry relative="1" as="geometry" />
        </mxCell>
        <mxCell id="lBwCpDVDsvU10m8GlB8_-24" value="8. Send Response Action" style="edgeLabel;html=1;align=center;verticalAlign=middle;resizable=0;points=[];" vertex="1" connectable="0" parent="lBwCpDVDsvU10m8GlB8_-23">
          <mxGeometry x="0.298" y="-1" relative="1" as="geometry">
            <mxPoint as="offset" />
          </mxGeometry>
        </mxCell>
        <mxCell id="SJ-bCOnbTnxGpGsnDmNn-3" value="Shuffle" style="image;aspect=fixed;perimeter=ellipsePerimeter;html=1;align=center;shadow=0;dashed=0;spacingTop=3;image=img/lib/active_directory/internet_cloud.svg;" vertex="1" parent="1">
          <mxGeometry x="400" y="220" width="50" height="31.5" as="geometry" />
        </mxCell>
        <mxCell id="SJ-bCOnbTnxGpGsnDmNn-4" value="TheHive" style="image;aspect=fixed;perimeter=ellipsePerimeter;html=1;align=center;shadow=0;dashed=0;spacingTop=3;image=img/lib/active_directory/internet_cloud.svg;" vertex="1" parent="1">
          <mxGeometry x="600" y="380" width="50" height="31.5" as="geometry" />
        </mxCell>
        <mxCell id="lBwCpDVDsvU10m8GlB8_-6" style="rounded=0;orthogonalLoop=1;jettySize=auto;html=1;entryX=0;entryY=0.5;entryDx=0;entryDy=0;shape=link;fillColor=#dae8fc;strokeColor=#6c8ebf;" edge="1" parent="1" source="SJ-bCOnbTnxGpGsnDmNn-5" target="SJ-bCOnbTnxGpGsnDmNn-3">
          <mxGeometry relative="1" as="geometry">
            <Array as="points">
              <mxPoint x="280" y="340" />
            </Array>
          </mxGeometry>
        </mxCell>
        <mxCell id="lBwCpDVDsvU10m8GlB8_-7" value="3. Send Alerts" style="edgeLabel;html=1;align=center;verticalAlign=middle;resizable=0;points=[];" vertex="1" connectable="0" parent="lBwCpDVDsvU10m8GlB8_-6">
          <mxGeometry x="-0.0942" y="1" relative="1" as="geometry">
            <mxPoint y="1" as="offset" />
          </mxGeometry>
        </mxCell>
        <mxCell id="SJ-bCOnbTnxGpGsnDmNn-5" value="Wazuh Manager" style="image;aspect=fixed;perimeter=ellipsePerimeter;html=1;align=center;shadow=0;dashed=0;spacingTop=3;image=img/lib/active_directory/internet_cloud.svg;" vertex="1" parent="1">
          <mxGeometry x="160" y="421.5" width="50" height="31.5" as="geometry" />
        </mxCell>
        <mxCell id="lBwCpDVDsvU10m8GlB8_-19" style="rounded=0;orthogonalLoop=1;jettySize=auto;html=1;entryX=0.75;entryY=1;entryDx=0;entryDy=0;shape=link;fillColor=#f8cecc;strokeColor=#b85450;" edge="1" parent="1" source="SJ-bCOnbTnxGpGsnDmNn-7" target="SJ-bCOnbTnxGpGsnDmNn-8">
          <mxGeometry relative="1" as="geometry">
            <Array as="points">
              <mxPoint x="460" y="560" />
            </Array>
          </mxGeometry>
        </mxCell>
        <mxCell id="lBwCpDVDsvU10m8GlB8_-20" value="8. Send Response Action" style="edgeLabel;html=1;align=center;verticalAlign=middle;resizable=0;points=[];" vertex="1" connectable="0" parent="lBwCpDVDsvU10m8GlB8_-19">
          <mxGeometry x="-0.1882" y="-3" relative="1" as="geometry">
            <mxPoint x="17" y="18" as="offset" />
          </mxGeometry>
        </mxCell>
        <mxCell id="SJ-bCOnbTnxGpGsnDmNn-7" value="SOC Analyst" style="fontColor=#0066CC;verticalAlign=top;verticalLabelPosition=bottom;labelPosition=center;align=center;html=1;outlineConnect=0;fillColor=#CCCCCC;strokeColor=#6881B3;gradientColor=none;gradientDirection=north;strokeWidth=2;shape=mxgraph.networks.pc;" vertex="1" parent="1">
          <mxGeometry x="610" y="550" width="100" height="70" as="geometry" />
        </mxCell>
        <mxCell id="lBwCpDVDsvU10m8GlB8_-4" style="edgeStyle=orthogonalEdgeStyle;rounded=0;orthogonalLoop=1;jettySize=auto;html=1;entryX=1;entryY=0.5;entryDx=0;entryDy=0;fillColor=#f5f5f5;strokeColor=#666666;startArrow=classic;startFill=1;shape=link;" edge="1" parent="1" source="SJ-bCOnbTnxGpGsnDmNn-8" target="SJ-bCOnbTnxGpGsnDmNn-5">
          <mxGeometry relative="1" as="geometry" />
        </mxCell>
        <mxCell id="lBwCpDVDsvU10m8GlB8_-5" value="2. Receive Events" style="edgeLabel;html=1;align=center;verticalAlign=middle;resizable=0;points=[];" vertex="1" connectable="0" parent="lBwCpDVDsvU10m8GlB8_-4">
          <mxGeometry x="0.0303" y="-2" relative="1" as="geometry">
            <mxPoint as="offset" />
          </mxGeometry>
        </mxCell>
        <mxCell id="lBwCpDVDsvU10m8GlB8_-17" style="rounded=0;orthogonalLoop=1;jettySize=auto;html=1;shape=link;fillColor=#ffe6cc;strokeColor=#d79b00;" edge="1" parent="1" source="SJ-bCOnbTnxGpGsnDmNn-8" target="SJ-bCOnbTnxGpGsnDmNn-7">
          <mxGeometry relative="1" as="geometry" />
        </mxCell>
        <mxCell id="lBwCpDVDsvU10m8GlB8_-18" value="7. Send &amp;amp; Receive Email" style="edgeLabel;html=1;align=center;verticalAlign=middle;resizable=0;points=[];" vertex="1" connectable="0" parent="lBwCpDVDsvU10m8GlB8_-17">
          <mxGeometry x="0.19" y="-4" relative="1" as="geometry">
            <mxPoint as="offset" />
          </mxGeometry>
        </mxCell>
        <mxCell id="lBwCpDVDsvU10m8GlB8_-21" value="" style="edgeStyle=orthogonalEdgeStyle;rounded=0;orthogonalLoop=1;jettySize=auto;html=1;shape=link;fillColor=#d5e8d4;strokeColor=#82b366;" edge="1" parent="1" source="SJ-bCOnbTnxGpGsnDmNn-8" target="SJ-bCOnbTnxGpGsnDmNn-3">
          <mxGeometry relative="1" as="geometry" />
        </mxCell>
        <mxCell id="lBwCpDVDsvU10m8GlB8_-22" style="rounded=0;orthogonalLoop=1;jettySize=auto;html=1;exitX=0;exitY=0;exitDx=0;exitDy=0;entryX=0;entryY=0.75;entryDx=0;entryDy=0;shape=link;fillColor=#f8cecc;strokeColor=#b85450;" edge="1" parent="1" source="SJ-bCOnbTnxGpGsnDmNn-8" target="SJ-bCOnbTnxGpGsnDmNn-3">
          <mxGeometry relative="1" as="geometry">
            <Array as="points">
              <mxPoint x="330" y="380" />
            </Array>
          </mxGeometry>
        </mxCell>
        <mxCell id="SJ-bCOnbTnxGpGsnDmNn-8" value="Internet" style="image;aspect=fixed;perimeter=ellipsePerimeter;html=1;align=center;shadow=0;dashed=0;spacingTop=3;image=img/lib/active_directory/internet_cloud.svg;" vertex="1" parent="1">
          <mxGeometry x="390" y="421.5" width="50" height="31.5" as="geometry" />
        </mxCell>
        <mxCell id="lBwCpDVDsvU10m8GlB8_-25" style="rounded=0;orthogonalLoop=1;jettySize=auto;html=1;entryX=0;entryY=0.5;entryDx=0;entryDy=0;entryPerimeter=0;fillColor=#f8cecc;strokeColor=#b85450;shape=link;exitX=0.5;exitY=1;exitDx=0;exitDy=0;" edge="1" parent="1" source="SJ-bCOnbTnxGpGsnDmNn-5">
          <mxGeometry relative="1" as="geometry">
            <mxPoint x="221.1973860976583" y="449.99839197837264" as="sourcePoint" />
            <mxPoint x="360" y="792.49" as="targetPoint" />
          </mxGeometry>
        </mxCell>
        <mxCell id="lBwCpDVDsvU10m8GlB8_-26" value="8. Perform Responsive Action" style="edgeLabel;html=1;align=center;verticalAlign=middle;resizable=0;points=[];" vertex="1" connectable="0" parent="lBwCpDVDsvU10m8GlB8_-25">
          <mxGeometry x="-0.244" y="-1" relative="1" as="geometry">
            <mxPoint x="-1" as="offset" />
          </mxGeometry>
        </mxCell>
        <mxCell id="lBwCpDVDsvU10m8GlB8_-28" style="edgeStyle=orthogonalEdgeStyle;rounded=0;orthogonalLoop=1;jettySize=auto;html=1;entryX=-0.008;entryY=0.55;entryDx=0;entryDy=0;entryPerimeter=0;" edge="1" parent="1" source="lBwCpDVDsvU10m8GlB8_-27" target="lBwCpDVDsvU10m8GlB8_-29">
          <mxGeometry relative="1" as="geometry">
            <mxPoint x="150" y="953" as="targetPoint" />
          </mxGeometry>
        </mxCell>
        <mxCell id="lBwCpDVDsvU10m8GlB8_-27" value="Windows 10&amp;nbsp;&lt;br&gt;Send Events" style="text;html=1;align=center;verticalAlign=middle;resizable=0;points=[];autosize=1;strokeColor=none;fillColor=none;" vertex="1" parent="1">
          <mxGeometry x="10" y="880" width="90" height="40" as="geometry" />
        </mxCell>
        <mxCell id="lBwCpDVDsvU10m8GlB8_-30" style="edgeStyle=orthogonalEdgeStyle;rounded=0;orthogonalLoop=1;jettySize=auto;html=1;entryX=-0.017;entryY=0.25;entryDx=0;entryDy=0;entryPerimeter=0;" edge="1" parent="1" source="lBwCpDVDsvU10m8GlB8_-29" target="lBwCpDVDsvU10m8GlB8_-32">
          <mxGeometry relative="1" as="geometry">
            <mxPoint x="460" y="960" as="targetPoint" />
          </mxGeometry>
        </mxCell>
        <mxCell id="lBwCpDVDsvU10m8GlB8_-29" value="Wazuh Manager&amp;nbsp;&lt;br&gt;Trigger alerts &amp;amp; Perform response actions" style="text;html=1;align=center;verticalAlign=middle;resizable=0;points=[];autosize=1;strokeColor=none;fillColor=none;" vertex="1" parent="1">
          <mxGeometry x="50" y="950" width="250" height="40" as="geometry" />
        </mxCell>
        <mxCell id="lBwCpDVDsvU10m8GlB8_-33" style="edgeStyle=orthogonalEdgeStyle;rounded=0;orthogonalLoop=1;jettySize=auto;html=1;" edge="1" parent="1" source="lBwCpDVDsvU10m8GlB8_-32" target="lBwCpDVDsvU10m8GlB8_-34">
          <mxGeometry relative="1" as="geometry">
            <mxPoint x="570" y="890" as="targetPoint" />
          </mxGeometry>
        </mxCell>
        <mxCell id="lBwCpDVDsvU10m8GlB8_-35" style="edgeStyle=orthogonalEdgeStyle;rounded=0;orthogonalLoop=1;jettySize=auto;html=1;entryX=0.48;entryY=0.075;entryDx=0;entryDy=0;entryPerimeter=0;" edge="1" parent="1" source="lBwCpDVDsvU10m8GlB8_-32" target="lBwCpDVDsvU10m8GlB8_-36">
          <mxGeometry relative="1" as="geometry">
            <mxPoint x="555" y="1030" as="targetPoint" />
          </mxGeometry>
        </mxCell>
        <mxCell id="lBwCpDVDsvU10m8GlB8_-39" style="edgeStyle=orthogonalEdgeStyle;rounded=0;orthogonalLoop=1;jettySize=auto;html=1;" edge="1" parent="1" source="lBwCpDVDsvU10m8GlB8_-32">
          <mxGeometry relative="1" as="geometry">
            <mxPoint x="720" y="1000" as="targetPoint" />
          </mxGeometry>
        </mxCell>
        <mxCell id="lBwCpDVDsvU10m8GlB8_-32" value="Shuffle&lt;br&gt;Receive Wazuh Alerts &amp;amp; Send Responsive actions" style="text;html=1;align=center;verticalAlign=middle;resizable=0;points=[];autosize=1;strokeColor=none;fillColor=none;" vertex="1" parent="1">
          <mxGeometry x="350" y="950" width="290" height="40" as="geometry" />
        </mxCell>
        <mxCell id="lBwCpDVDsvU10m8GlB8_-34" value="OSINT Enrich Indicators of Compromise(IOCS)" style="text;html=1;align=center;verticalAlign=middle;resizable=0;points=[];autosize=1;strokeColor=none;fillColor=none;" vertex="1" parent="1">
          <mxGeometry x="400" y="890" width="270" height="30" as="geometry" />
        </mxCell>
        <mxCell id="lBwCpDVDsvU10m8GlB8_-36" value="TheHive&lt;br&gt;Create alert in case management" style="text;html=1;align=center;verticalAlign=middle;resizable=0;points=[];autosize=1;strokeColor=none;fillColor=none;" vertex="1" parent="1">
          <mxGeometry x="370" y="1023" width="200" height="40" as="geometry" />
        </mxCell>
        <mxCell id="lBwCpDVDsvU10m8GlB8_-40" value="Email&lt;br&gt;Send email &amp;amp; responsive actions" style="text;html=1;align=center;verticalAlign=middle;resizable=0;points=[];autosize=1;strokeColor=none;fillColor=none;" vertex="1" parent="1">
          <mxGeometry x="620" y="1003" width="200" height="40" as="geometry" />
        </mxCell>
      </root>
    </mxGraphModel>
  </diagram>
</mxfile>
